{
  "accessors": [
    {
      "bufferView": 2,
      "componentType": 5126,
      "count": 4608,
      "max": [
        4.5589556694030762,
        6.5483899116516113,
        11.817169189453125
      ],
      "min": [
        -8.2292375564575195,
        -3.8226966857910156,
        -0.96163731813430786
      ],
      "type": "VEC3"
    },
    {
      "bufferView": 2,
      "byteOffset": 55296,
      "componentType": 5126,
      "count": 4608,
      "max": [
        0.99924260377883911,
        0.99946248531341553,
        0.99982130527496338
      ],
      "min": [
        -0.99743789434432983,
        -0.99604243040084839,
        -0.9999578595161438
      ],
      "type": "VEC3"
    },
    {
      "bufferView": 3,
      "componentType": 5126,
      "count": 4608,
      "max": [
        0.99999815225601196,
        0.99552160501480103,
        0.99998843669891357,
        1
      ],
      "min": [
        -0.9997747540473938,
        -0.99495542049407959,
        -0.99975383281707764,
        -1
      ],
      "type": "VEC4"
    },
    {
      "bufferView": 1,
      "componentType": 5126,
      "count": 4608,
      "max": [
        0.97136998176574707,
        0.85333633422851562
      ],
      "min": [
        0.037742435932159424,
        0.17559732496738434
      ],
      "type": "VEC2"
    },
    {
      "bufferView": 0,
      "componentType": 5125,
      "count": 29232,
      "max": [
        4607
      ],
      "min": [
        0
      ],
      "type": "SCALAR"
    }
  ],
  "asset": {
    "generator": "Sketchfab (OSG glTF plugin)",
    "version": "2.0"
  },
  "bufferViews": [
    {
      "buffer": 0,
      "byteLength": 116928,
      "byteOffset": 0,
      "name": "floatBufferViews",
      "target": 34963
    },
    {
      "buffer": 0,
      "byteLength": 36864,
      "byteOffset": 116928,
      "byteStride": 8,
      "name": "floatBufferViews",
      "target": 34962
    },
    {
      "buffer": 0,
      "byteLength": 110592,
      "byteOffset": 153792,
      "byteStride": 12,
      "name": "floatBufferViews",
      "target": 34962
    },
    {
      "buffer": 0,
      "byteLength": 73728,
      "byteOffset": 264384,
      "byteStride": 16,
      "name": "floatBufferViews",
      "target": 34962
    }
  ],
  "buffers": [
    {
      "byteLength": 338112,
      "uri": "scene.bin"
    }
  ],
  "images": [
    {
      "uri": "textures/lambert8_baseColor.png"
    }
  ],
  "materials": [
    {
      "doubleSided": true,
      "emissiveFactor": [
        0,
        0,
        0
      ],
      "name": "lambert8",
      "pbrMetallicRoughness": {
        "baseColorFactor": [
          1,
          1,
          1,
          1
        ],
        "baseColorTexture": {
          "index": 0,
          "texCoord": 0
        },
        "metallicFactor": 0,
        "roughnessFactor": 0.59999999999999998
      }
    }
  ],
  "meshes": [
    {
      "name": "polySurface4_lambert8_0",
      "primitives": [
        {
          "attributes": {
            "NORMAL": 1,
            "POSITION": 0,
            "TANGENT": 2,
            "TEXCOORD_0": 3
          },
          "indices": 4,
          "material": 0,
          "mode": 4
        }
      ]
    }
  ],
  "nodes": [
    {
      "children": [
        1
      ],
      "name": "RootNode (gltf orientation matrix)",
      "rotation": [
        -0.70710678118654746,
        -0,
        -0,
        0.70710678118654757
      ]
    },
    {
      "children": [
        2
      ],
      "name": "RootNode (model correction matrix)"
    },
    {
      "children": [
        3
      ],
      "matrix": [
        1,
        0,
        0,
        0,
        0,
        0,
        1,
        0,
        0,
        -1,
        0,
        0,
        0,
        0,
        0,
        1
      ],
      "name": "74ba5c5d5b2d43a78fa8ea3767fba246.fbx"
    },
    {
      "children": [
        4
      ],
      "name": "RootNode"
    },
    {
      "children": [
        5
      ],
      "name": "polySurface4"
    },
    {
      "children": [
        6
      ],
      "name": "Geode"
    },
    {
      "mesh": 0,
      "name": "polySurface4_lambert8_0"
    }
  ],
  "samplers": [
    {
      "magFilter": 9729,
      "minFilter": 9987,
      "wrapS": 10497,
      "wrapT": 10497
    }
  ],
  "scene": 0,
  "scenes": [
    {
      "name": "OSG_Scene",
      "nodes": [
        0
      ]
    }
  ],
  "textures": [
    {
      "sampler": 0,
      "source": 0
    }
  ]
}

