{
  "accessors": [
    {
      "bufferView": 1,
      "componentType": 5126,
      "count": 65532,
      "max": [
        3.7663900852203369,
        1.541890025138855,
        0.23853999376296997
      ],
      "min": [
        -1.6098300218582153,
        -2.0721499919891357,
        -0.066710002720355988
      ],
      "type": "VEC3"
    },
    {
      "bufferView": 1,
      "byteOffset": 786384,
      "componentType": 5126,
      "count": 65532,
      "max": [
        0.88530641794204712,
        0.03329000249505043,
        1
      ],
      "min": [
        -0.093910269439220428,
        -0.59635770320892334,
        0.46500810980796814
      ],
      "type": "VEC3"
    },
    {
      "bufferView": 0,
      "componentType": 5125,
      "count": 98298,
      "max": [
        65531
      ],
      "min": [
        0
      ],
      "type": "SCALAR"
    },
    {
      "bufferView": 1,
      "byteOffset": 1572768,
      "componentType": 5126,
      "count": 65532,
      "max": [
        4.0795497894287109,
        0.8578600287437439,
        0.18758000433444977
      ],
      "min": [
        -1.4401099681854248,
        -2.7962000370025635,
        -0.88858002424240112
      ],
      "type": "VEC3"
    },
    {
      "bufferView": 1,
      "byteOffset": 2359152,
      "componentType": 5126,
      "count": 65532,
      "max": [
        0.97429394721984863,
        -0,
        0.99869918823242188
      ],
      "min": [
        -0.079210132360458374,
        -0.99479973316192627,
        0.099149942398071289
      ],
      "type": "VEC3"
    },
    {
      "bufferView": 0,
      "byteOffset": 393192,
      "componentType": 5125,
      "count": 98298,
      "max": [
        65531
      ],
      "min": [
        0
      ],
      "type": "SCALAR"
    },
    {
      "bufferView": 1,
      "byteOffset": 3145536,
      "componentType": 5126,
      "count": 65532,
      "max": [
        4.1701698303222656,
        0.90420001745223999,
        -0.47633001208305359
      ],
      "min": [
        -0.7543799877166748,
        -2.8154299259185791,
        -1.6726399660110474
      ],
      "type": "VEC3"
    },
    {
      "bufferView": 1,
      "byteOffset": 3931920,
      "componentType": 5126,
      "count": 65532,
      "max": [
        0.99848520755767822,
        1.0000027941714507e-05,
        0.26896986365318298
      ],
      "min": [
        -0.00011000053928000852,
        -0.9999995231628418,
        -0.30223935842514038
      ],
      "type": "VEC3"
    },
    {
      "bufferView": 0,
      "byteOffset": 786384,
      "componentType": 5125,
      "count": 98298,
      "max": [
        65531
      ],
      "min": [
        0
      ],
      "type": "SCALAR"
    },
    {
      "bufferView": 1,
      "byteOffset": 4718304,
      "componentType": 5126,
      "count": 49164,
      "max": [
        4.2110300064086914,
        0.93817001581192017,
        -1.2990100383758545
      ],
      "min": [
        -0.76709002256393433,
        -2.7725400924682617,
        -1.9620800018310547
      ],
      "type": "VEC3"
    },
    {
      "bufferView": 1,
      "byteOffset": 5308272,
      "componentType": 5126,
      "count": 49164,
      "max": [
        0.99583262205123901,
        0.00017000021762214601,
        0.3097386360168457
      ],
      "min": [
        0.00076999695738777518,
        -0.98556613922119141,
        -0.59952867031097412
      ],
      "type": "VEC3"
    },
    {
      "bufferView": 0,
      "byteOffset": 1179576,
      "componentType": 5125,
      "count": 73746,
      "max": [
        49163
      ],
      "min": [
        0
      ],
      "type": "SCALAR"
    },
    {
      "bufferView": 1,
      "byteOffset": 5898240,
      "componentType": 5126,
      "count": 297,
      "max": [
        1,
        1.3675899505615234,
        3.8989100456237793
      ],
      "min": [
        -1.7754299640655518,
        -1.57955002784729,
        -0.010180000215768814
      ],
      "type": "VEC3"
    },
    {
      "bufferView": 1,
      "byteOffset": 5901804,
      "componentType": 5126,
      "count": 297,
      "max": [
        0.70611977577209473,
        0.70694881677627563,
        1
      ],
      "min": [
        -0.70694881677627563,
        -0.70615267753601074,
        -0.54003220796585083
      ],
      "type": "VEC3"
    },
    {
      "bufferView": 0,
      "byteOffset": 1474560,
      "componentType": 5125,
      "count": 486,
      "max": [
        296
      ],
      "min": [
        0
      ],
      "type": "SCALAR"
    },
    {
      "bufferView": 1,
      "byteOffset": 5905368,
      "componentType": 5126,
      "count": 297,
      "max": [
        1,
        1.3675899505615234,
        3.8989100456237793
      ],
      "min": [
        -1.7754299640655518,
        -1.57955002784729,
        -0.010180000215768814
      ],
      "type": "VEC3"
    },
    {
      "bufferView": 1,
      "byteOffset": 5908932,
      "componentType": 5126,
      "count": 297,
      "max": [
        0.70611977577209473,
        0.70694881677627563,
        1
      ],
      "min": [
        -0.70694881677627563,
        -0.70615267753601074,
        -0.54003220796585083
      ],
      "type": "VEC3"
    },
    {
      "bufferView": 0,
      "byteOffset": 1476504,
      "componentType": 5125,
      "count": 486,
      "max": [
        296
      ],
      "min": [
        0
      ],
      "type": "SCALAR"
    },
    {
      "bufferView": 1,
      "byteOffset": 5912496,
      "componentType": 5126,
      "count": 297,
      "max": [
        1,
        1.3675899505615234,
        3.8989100456237793
      ],
      "min": [
        -1.7754299640655518,
        -1.57955002784729,
        -0.010180000215768814
      ],
      "type": "VEC3"
    },
    {
      "bufferView": 1,
      "byteOffset": 5916060,
      "componentType": 5126,
      "count": 297,
      "max": [
        0.70611977577209473,
        0.70694881677627563,
        1
      ],
      "min": [
        -0.70694881677627563,
        -0.70615267753601074,
        -0.54003220796585083
      ],
      "type": "VEC3"
    },
    {
      "bufferView": 0,
      "byteOffset": 1478448,
      "componentType": 5125,
      "count": 486,
      "max": [
        296
      ],
      "min": [
        0
      ],
      "type": "SCALAR"
    }
  ],
  "asset": {
    "generator": "Sketchfab (OSG glTF plugin)",
    "version": "2.0"
  },
  "bufferViews": [
    {
      "buffer": 0,
      "byteLength": 1480392,
      "byteOffset": 0,
      "name": "floatBufferViews",
      "target": 34963
    },
    {
      "buffer": 0,
      "byteLength": 5919624,
      "byteOffset": 1480392,
      "byteStride": 12,
      "name": "floatBufferViews",
      "target": 34962
    }
  ],
  "buffers": [
    {
      "byteLength": 7400016,
      "uri": "scene.bin"
    }
  ],
  "materials": [
    {
      "doubleSided": true,
      "emissiveFactor": [
        0,
        0,
        0
      ],
      "name": "Material.002",
      "pbrMetallicRoughness": {
        "baseColorFactor": [
          0.07384352197842238,
          0.21944241846420592,
          0.64000006672000087,
          1
        ]
      }
    },
    {
      "doubleSided": true,
      "emissiveFactor": [
        0,
        0,
        0
      ],
      "name": "Material.004",
      "pbrMetallicRoughness": {
        "baseColorFactor": [
          0.020620401506728468,
          0.64000006672000087,
          0.28782461116139102,
          1
        ]
      }
    },
    {
      "doubleSided": true,
      "emissiveFactor": [
        0,
        0,
        0
      ],
      "name": "Material.005",
      "pbrMetallicRoughness": {
        "baseColorFactor": [
          0.019529335421351955,
          0.087100721438647499,
          0.3098413267320661,
          1
        ]
      }
    },
    {
      "doubleSided": true,
      "emissiveFactor": [
        0,
        0,
        0
      ],
      "name": "Material.003",
      "pbrMetallicRoughness": {
        "baseColorFactor": [
          0.11551040579821727,
          0.022006957527353488,
          0.64000006672000087,
          1
        ]
      }
    }
  ],
  "meshes": [
    {
      "name": "Plane_0",
      "primitives": [
        {
          "attributes": {
            "NORMAL": 1,
            "POSITION": 0
          },
          "indices": 2,
          "material": 3,
          "mode": 4
        }
      ]
    },
    {
      "name": "Plane_0",
      "primitives": [
        {
          "attributes": {
            "NORMAL": 4,
            "POSITION": 3
          },
          "indices": 5,
          "material": 3,
          "mode": 4
        }
      ]
    },
    {
      "name": "Plane_0",
      "primitives": [
        {
          "attributes": {
            "NORMAL": 7,
            "POSITION": 6
          },
          "indices": 8,
          "material": 3,
          "mode": 4
        }
      ]
    },
    {
      "name": "Plane_0",
      "primitives": [
        {
          "attributes": {
            "NORMAL": 10,
            "POSITION": 9
          },
          "indices": 11,
          "material": 3,
          "mode": 4
        }
      ]
    },
    {
      "name": "Grid_0",
      "primitives": [
        {
          "attributes": {
            "NORMAL": 13,
            "POSITION": 12
          },
          "indices": 14,
          "material": 2,
          "mode": 4
        }
      ]
    },
    {
      "name": "Grid.001_0",
      "primitives": [
        {
          "attributes": {
            "NORMAL": 16,
            "POSITION": 15
          },
          "indices": 17,
          "material": 1,
          "mode": 4
        }
      ]
    },
    {
      "name": "Grid.002_0",
      "primitives": [
        {
          "attributes": {
            "NORMAL": 19,
            "POSITION": 18
          },
          "indices": 20,
          "material": 0,
          "mode": 4
        }
      ]
    }
  ],
  "nodes": [
    {
      "children": [
        1
      ],
      "name": "RootNode (gltf orientation matrix)",
      "rotation": [
        -0.70710678118654746,
        -0,
        -0,
        0.70710678118654757
      ]
    },
    {
      "children": [
        2
      ],
      "name": "RootNode (model correction matrix)"
    },
    {
      "children": [
        3,
        9,
        12,
        15,
        18,
        20,
        22
      ],
      "name": "Root"
    },
    {
      "children": [
        4
      ],
      "matrix": [
        -34.000370000000004,
        -22.949850000000001,
        0.19884000000000004,
        0,
        22.949449999999999,
        -34.000950000000003,
        -0.13421000000000002,
        0,
        -0.23990000000000003,
        -0,
        -41.020760000000003,
        0,
        23.97747,
        0,
        0.66479000000000021,
        1
      ],
      "name": "Plane"
    },
    {
      "children": [
        5,
        6,
        7,
        8
      ],
      "name": "Geode"
    },
    {
      "mesh": 0,
      "name": "Plane_0"
    },
    {
      "mesh": 1,
      "name": "Plane_0"
    },
    {
      "mesh": 2,
      "name": "Plane_0"
    },
    {
      "mesh": 3,
      "name": "Plane_0"
    },
    {
      "children": [
        10
      ],
      "matrix": [
        1.34649,
        0,
        0,
        0,
        0,
        1.34649,
        0,
        0,
        0,
        0,
        1.34649,
        0,
        3.4370699999999998,
        -3.40381,
        -1.7898000000000001,
        1
      ],
      "name": "Grid"
    },
    {
      "children": [
        11
      ],
      "name": "Geode"
    },
    {
      "mesh": 4,
      "name": "Grid_0"
    },
    {
      "children": [
        13
      ],
      "matrix": [
        0.83917000000000008,
        -0.54386000000000001,
        0,
        0,
        0.54386000000000001,
        0.83917000000000008,
        0,
        0,
        0,
        0,
        1,
        0,
        2.6781300000000003,
        0.33957000000000009,
        -1.7806300000000002,
        1
      ],
      "name": "Grid.001"
    },
    {
      "children": [
        14
      ],
      "name": "Geode"
    },
    {
      "mesh": 5,
      "name": "Grid.001_0"
    },
    {
      "children": [
        16
      ],
      "matrix": [
        -0.43868000000000007,
        0.78612000000000004,
        0,
        0,
        -0.78612000000000004,
        -0.43868000000000007,
        0,
        0,
        0,
        0,
        0.90024000000000004,
        0,
        3.7137800000000003,
        -7.5694299999999997,
        -1.35006,
        1
      ],
      "name": "Grid.002"
    },
    {
      "children": [
        17
      ],
      "name": "Geode"
    },
    {
      "mesh": 6,
      "name": "Grid.002_0"
    },
    {
      "children": [
        19
      ],
      "matrix": [
        0.90842999999999996,
        0,
        0.41804000000000002,
        0,
        0,
        1,
        0,
        0,
        -0.41804000000000002,
        0,
        0.90842999999999996,
        0,
        -82.12791,
        -2.4152199999999997,
        32.808520000000001,
        1
      ],
      "name": "Hemi"
    },
    {
      "name": "Hemi"
    },
    {
      "children": [
        21
      ],
      "matrix": [
        0.16470000000000004,
        0,
        -0.98633999999999999,
        0,
        0,
        1,
        0,
        0,
        0.98633999999999999,
        0,
        0.16470000000000004,
        0,
        15.955050000000002,
        -3.4876,
        0.92934000000000005,
        1
      ],
      "name": "Hemi.001"
    },
    {
      "name": "Hemi.001"
    },
    {
      "children": [
        23
      ],
      "matrix": [
        1,
        0,
        0,
        0,
        0,
        1,
        0,
        0,
        0,
        0,
        1,
        0,
        7.7216800000000001,
        -1.75746,
        2.6437200000000005,
        1
      ],
      "name": "Point"
    },
    {
      "name": "Point"
    }
  ],
  "scene": 0,
  "scenes": [
    {
      "name": "OSG_Scene",
      "nodes": [
        0
      ]
    }
  ]
}

