{
  "accessors": [
    {
      "bufferView": 1,
      "componentType": 5126,
      "count": 360,
      "max": [
        -0.16312099993228912,
        -0.5516350269317627,
        4.2761120796203613
      ],
      "min": [
        -2.7588489055633545,
        -3.8198080062866211,
        -0.23573100566864014
      ],
      "type": "VEC3"
    },
    {
      "bufferView": 1,
      "byteOffset": 4320,
      "componentType": 5126,
      "count": 360,
      "max": [
        0.99910575151443481,
        0.99827194213867188,
        0.95671385526657104
      ],
      "min": [
        -0.99722379446029663,
        -0.99838662147521973,
        -1
      ],
      "type": "VEC3"
    },
    {
      "bufferView": 0,
      "componentType": 5125,
      "count": 540,
      "max": [
        359
      ],
      "min": [
        0
      ],
      "type": "SCALAR"
    },
    {
      "bufferView": 1,
      "byteOffset": 8640,
      "componentType": 5126,
      "count": 960,
      "max": [
        0.53035098314285278,
        0.46147701144218445,
        5.0955290794372559
      ],
      "min": [
        -3.7652730941772461,
        -4.771216869354248,
        1.1874879598617554
      ],
      "type": "VEC3"
    },
    {
      "bufferView": 1,
      "byteOffset": 20160,
      "componentType": 5126,
      "count": 960,
      "max": [
        0.99969500303268433,
        0.99618959426879883,
        0.99964290857315063
      ],
      "min": [
        -0.97834163904190063,
        -0.99524456262588501,
        -0.99956744909286499
      ],
      "type": "VEC3"
    },
    {
      "bufferView": 0,
      "byteOffset": 2160,
      "componentType": 5125,
      "count": 960,
      "max": [
        959
      ],
      "min": [
        0
      ],
      "type": "SCALAR"
    }
  ],
  "asset": {
    "generator": "Sketchfab (OSG glTF plugin)",
    "version": "2.0"
  },
  "bufferViews": [
    {
      "buffer": 0,
      "byteLength": 6000,
      "byteOffset": 0,
      "name": "floatBufferViews",
      "target": 34963
    },
    {
      "buffer": 0,
      "byteLength": 31680,
      "byteOffset": 6000,
      "byteStride": 12,
      "name": "floatBufferViews",
      "target": 34962
    }
  ],
  "buffers": [
    {
      "byteLength": 37680,
      "uri": "scene.bin"
    }
  ],
  "materials": [
    {
      "doubleSided": true,
      "emissiveFactor": [
        0,
        0,
        0
      ],
      "name": "Branch",
      "pbrMetallicRoughness": {
        "baseColorFactor": [
          0.196961,
          0.074446999999999999,
          0.013446,
          1
        ],
        "metallicFactor": 0,
        "roughnessFactor": 0.84349154199999998
      }
    },
    {
      "doubleSided": true,
      "emissiveFactor": [
        0,
        0,
        0
      ],
      "name": "Leaf",
      "pbrMetallicRoughness": {
        "baseColorFactor": [
          0.0086429999999999996,
          0.45254899999999998,
          0.021558000000000001,
          1
        ],
        "metallicFactor": 0,
        "roughnessFactor": 0.84584603660000002
      }
    }
  ],
  "meshes": [
    {
      "primitives": [
        {
          "attributes": {
            "NORMAL": 1,
            "POSITION": 0
          },
          "indices": 2,
          "material": 0,
          "mode": 4
        }
      ]
    },
    {
      "primitives": [
        {
          "attributes": {
            "NORMAL": 4,
            "POSITION": 3
          },
          "indices": 5,
          "material": 1,
          "mode": 4
        }
      ]
    }
  ],
  "nodes": [
    {
      "children": [
        1
      ],
      "name": "RootNode (gltf orientation matrix)",
      "rotation": [
        -0.70710678118654746,
        -0,
        -0,
        0.70710678118654757
      ]
    },
    {
      "children": [
        2
      ],
      "name": "RootNode (model correction matrix)"
    },
    {
      "children": [
        3
      ],
      "name": "Tree.obj.cleaner.materialmerger.gles"
    },
    {
      "children": [
        4,
        5
      ],
      "name": "Geode"
    },
    {
      "mesh": 0,
      "name": ""
    },
    {
      "mesh": 1,
      "name": ""
    }
  ],
  "scene": 0,
  "scenes": [
    {
      "name": "OSG_Scene",
      "nodes": [
        0
      ]
    }
  ]
}

